<svg width="242" height="96" viewBox="0 0 242 96" fill="none" xmlns="http://www.w3.org/2000/svg">
<path d="M241.634 86.6269C242.042 86.9991 242.071 87.6316 241.699 88.0397L235.633 94.6888C235.261 95.0968 234.629 95.1258 234.221 94.7536C233.813 94.3814 233.784 93.7489 234.156 93.3409L239.547 87.4306L233.637 82.0391C233.229 81.6669 233.2 81.0344 233.572 80.6264C233.944 80.2184 234.577 80.1893 234.985 80.5615L241.634 86.6269ZM2.46022 0.365641L3.4521 0.492877C0.385842 24.3961 6.40179 41.9287 18.8411 54.7817C31.3258 67.6816 50.3876 75.9791 73.6145 81.1304C120.078 91.4353 182.657 89.0414 240.914 86.3668L240.96 87.3657L241.006 88.3647C182.826 91.0357 119.957 93.457 73.1815 83.083C49.7886 77.8949 30.2826 69.4796 17.4039 56.1726C4.47987 42.8187 -1.66316 24.6504 1.46835 0.238404L2.46022 0.365641Z" fill="#383838"/>
</svg>
